<?xml version="1.0" encoding="utf-8"?>
<!-- Generator: Adobe Illustrator 24.2.1, SVG Export Plug-In . SVG Version: 6.00 Build 0)  -->
<svg version="1.1" id="Layer_1" xmlns="http://www.w3.org/2000/svg" xmlns:xlink="http://www.w3.org/1999/xlink" x="0px" y="0px"
	 viewBox="0 0 617.2 98.5" style="enable-background:new 0 0 617.2 98.5;" xml:space="preserve">
<style type="text/css">
	.st0{fill:#1B1B1B;}
	.st1{fill:none;stroke:#1B1B1B;stroke-width:0.3525;stroke-miterlimit:12.5;}
	.st2{fill:#3979BB;}
	.st3{fill:#8A8B8B;}
	.st4{fill:#EB685F;}
	.st5{fill:none;}
	.st6{font-family:'ArialNarrow';}
	.st7{font-size:58.6749px;}
</style>
<g id="layer1" transform="translate(-290.48611,-508.59873)">
	<path id="path3462" class="st0" d="M752.6,590.1h-17.5v-29.6h-25.8v29.6h-17.5v-67.2h17.5v24.5h25.8v-24.5h17.5V590.1L752.6,590.1z
		"/>
	<path id="path3464" class="st0" d="M826.1,556.7c0,6.4-1.3,11.8-4.1,16.9s-6.4,8.6-10.8,11.5c-3.2,1.9-7,3.5-10.8,4.1
		c-3.8,0.6-8.6,1.3-14,1.3h-23.9v-67.5H787c5.4,0,10.2,0.3,14.3,1.3c3.8,1,7.3,2.2,10.2,3.8c4.8,2.9,8.3,6.7,10.8,11.5
		C824.9,544.6,826.1,550,826.1,556.7z M808.3,556.7c0-4.5-1-8.3-2.5-11.5c-1.6-3.2-4.1-5.7-7.6-7.3c-1.9-1-3.5-1.6-5.4-1.9
		c-1.9-0.3-4.8-0.6-8.3-0.6H780v42h4.5c4.1,0,7-0.3,9.2-0.6c1.9-0.3,3.8-1,5.7-2.2c3.2-1.9,5.4-4.1,7-7.3
		C807.3,564.6,808.3,561.1,808.3,556.7L808.3,556.7z"/>
	<path id="path3466" class="st0" d="M890.8,590.1h-20.1l-14.6-22.3l-14.6,22.3h-19.1l23.9-34.1l-23.2-33.4H843l14,21l14.3-21h19.1
		l-23.6,32.8L890.8,590.1L890.8,590.1z"/>
	<g id="g4318" transform="matrix(1.25,0,0,-1.25,284.19705,541.83045)">
		<path id="path3383" class="st1" d="M262.9-5.5L289-42.4"/>
		<path id="path3387" class="st1" d="M262.9-5.5l33.1-9.9"/>
		<path id="path3391" class="st1" d="M262.9-5.5L297,12.4"/>
		<path id="path3395" class="st1" d="M241.9-31.6l47.4-10.8"/>
		<path id="path3399" class="st1" d="M262.9-5.5L247,12.1"/>
		<g id="g3401">
			<path id="path3411" class="st2" d="M276.9-5.5c0-7.6-6.4-14-14-14c-7.6,0-14,6.4-14,14s6.4,14,14,14
				C270.9,8.6,276.9,2.2,276.9-5.5"/>
			<path id="path3415" class="st1" d="M276.9-5.5c0-7.6-6.4-14-14-14c-7.6,0-14,6.4-14,14s6.4,14,14,14
				C270.9,8.6,276.9,2.2,276.9-5.5z"/>
			<path id="path3419" class="st3" d="M295.4-42.4c0-3.5-2.9-6.1-6.1-6.1c-3.2,0-6.4,2.9-6.4,6.1c0,3.5,2.9,6.1,6.1,6.1
				C292.2-36.3,295.4-38.9,295.4-42.4"/>
			<path id="path3423" class="st1" d="M295.4-42.4c0-3.5-2.9-6.1-6.1-6.1c-3.2,0-6.4,2.9-6.4,6.1c0,3.5,2.9,6.1,6.1,6.1
				C292.2-36.3,295.4-38.9,295.4-42.4z"/>
			<path id="path3427" class="st3" d="M303.1-15.3c0-3.5-2.9-6.1-6.1-6.1c-3.5,0-6.1,2.9-6.1,6.1s2.9,6.1,6.1,6.1
				C300.5-9.3,303.1-11.8,303.1-15.3"/>
			<path id="path3431" class="st1" d="M303.1-15.3c0-3.5-2.9-6.1-6.1-6.1c-3.5,0-6.1,2.9-6.1,6.1s2.9,6.1,6.1,6.1
				C300.5-9.3,303.1-11.8,303.1-15.3z"/>
			<path id="path3435" class="st4" d="M306.9,12.4c0-5.4-4.5-9.9-9.9-9.9s-9.9,4.5-9.9,9.9s4.5,9.9,9.9,9.9S306.9,17.8,306.9,12.4"
				/>
			<path id="path3439" class="st1" d="M306.9,12.4c0-5.4-4.5-9.9-9.9-9.9s-9.9,4.5-9.9,9.9s4.5,9.9,9.9,9.9S306.9,17.8,306.9,12.4z"
				/>
			<path id="path3443" class="st3" d="M248-32.2c0-3.2-2.9-6.1-6.1-6.1c-3.5,0-6.1,2.9-6.1,6.1c0,3.5,2.5,6.4,6.1,6.4
				C245.1-25.8,248-28.7,248-32.2"/>
			<path id="path3447" class="st1" d="M248-32.2c0-3.2-2.9-6.1-6.1-6.1c-3.5,0-6.1,2.9-6.1,6.1c0,3.5,2.5,6.4,6.1,6.4
				C245.1-25.8,248-28.7,248-32.2z"/>
			<path id="path3451" class="st3" d="M250.8,15.2c0-3.5-2.9-6.1-6.1-6.1c-3.5,0-6.4,2.5-6.4,6.1s2.9,6.1,6.1,6.1
				C248,21.3,250.8,18.4,250.8,15.2"/>
			<g id="g3453" transform="translate(9.8843,23.877)">
				<path id="path3455" class="st1" d="M240.9-8.7c0-3.5-2.9-6.1-6.1-6.1c-3.5,0-6.1,2.5-6.1,6.1s2.9,6.1,6.1,6.1
					C238-2.7,240.9-5.2,240.9-8.7z"/>
			</g>
		</g>
	</g>
</g>
<rect x="15.8" y="23.3" class="st5" width="321.3" height="52.7"/>
<text transform="matrix(1 0 0 1 15.7669 65.2869)" class="st6 st7">Powered by</text>
</svg>
